<svg id="beb2bb3d-47e5-4754-ba2e-c264b4cb33ed" data-name="レイヤー 1" xmlns="http://www.w3.org/2000/svg" width="83.09" height="28.95" viewBox="0 0 83.09 28.95"><title>アートボード 1</title><path d="M20,28.55H13.52L4.69,7.87H4.43A24.81,24.81,0,0,1,4.92,13v15.6H0V0H6.52l8.75,20.47h.22a27.64,27.64,0,0,1-.37-4.88V0H20Z"/><path d="M32.49,29A7.82,7.82,0,0,1,26.06,26q-2.36-2.89-2.35-8.21c0-3.59.7-6.4,2.12-8.42a6.87,6.87,0,0,1,5.94-3A6.79,6.79,0,0,1,37.38,9a11.49,11.49,0,0,1,2,7.26V19H29a7.08,7.08,0,0,0,1.19,4.33,3.79,3.79,0,0,0,3.12,1.42,10.08,10.08,0,0,0,5.2-1.59v4.28A11.47,11.47,0,0,1,32.49,29Zm-.76-18.56a2.11,2.11,0,0,0-1.83,1.18,7.76,7.76,0,0,0-.84,3.66h5.27a8,8,0,0,0-.72-3.61A2.09,2.09,0,0,0,31.73,10.39Z"/><path d="M57.76,28.55,55.59,15.92l-.76-5.33h-.08c-.19,1.73-.35,3-.47,3.76s-.94,5.51-2.48,14.2H45.12L40.79,6.8H46l2,12c.23,1.33.44,3.27.64,5.84h.12c0-.69.11-1.74.27-3.16s.27-2.32.33-2.72L51.51,6.8h6.68l2.13,12A51.89,51.89,0,0,1,61,24.63H61q.27-3.49.69-5.84l2.07-12h5.07L64.52,28.55Z"/><path d="M83.09,22.19a6.57,6.57,0,0,1-1.86,5A7.68,7.68,0,0,1,75.73,29a10.23,10.23,0,0,1-5.33-1.27V23.16a9.62,9.62,0,0,0,2.51,1.23,7.85,7.85,0,0,0,2.53.49,2.62,2.62,0,0,0,1.84-.59,2.08,2.08,0,0,0,.64-1.58A2.52,2.52,0,0,0,77.25,21a11.29,11.29,0,0,0-2.44-1.82,10,10,0,0,1-3.39-3,6.8,6.8,0,0,1-1-3.76A5.46,5.46,0,0,1,72.3,8a7.8,7.8,0,0,1,5.22-1.62A10.41,10.41,0,0,1,83,7.91l-1.7,3.73a8,8,0,0,0-3.67-1.13,1.92,1.92,0,0,0-1.49.53,1.81,1.81,0,0,0-.5,1.28,2.29,2.29,0,0,0,.62,1.57,11,11,0,0,0,2.29,1.7,13.93,13.93,0,0,1,2.85,2.09,6.14,6.14,0,0,1,1.27,1.95A6.69,6.69,0,0,1,83.09,22.19Z"/></svg>