<svg id="ac66ab13-6ce7-419d-9642-4d7391361007" data-name="レイヤー 1" xmlns="http://www.w3.org/2000/svg" width="84.9" height="14.68" viewBox="0 0 84.9 14.68"><defs><style>.f0c6a134-6c2f-47dd-bf47-f8df311ebad7{fill:#fff;}</style></defs><title>アートボード 1</title><path class="f0c6a134-6c2f-47dd-bf47-f8df311ebad7" d="M1,8.24v6.24H0V.21H2A4.11,4.11,0,0,1,5,1.19,4.08,4.08,0,0,1,6,4.14a5,5,0,0,1-.53,2.44A3.24,3.24,0,0,1,3.68,8l2.83,6.46H5.44L2.77,8.24Zm0-.88H2.29a2.52,2.52,0,0,0,2-.8A3.51,3.51,0,0,0,5,4.18a3.16,3.16,0,0,0-.72-2.32A3.08,3.08,0,0,0,2,1.14H1Z"/><path class="f0c6a134-6c2f-47dd-bf47-f8df311ebad7" d="M14.87,14.48H9.7V.21h5.17v.91H10.65V6.54h4v.92h-4v6.1h4.22Z"/><path class="f0c6a134-6c2f-47dd-bf47-f8df311ebad7" d="M24,14.48,22.73,9.31H19.27L18,14.48H17L20.47.21h1L25,14.48ZM22.51,8.34,21.25,3c-.13-.6-.23-1.17-.31-1.7A14.63,14.63,0,0,1,20.67,3L19.45,8.34Z"/><path class="f0c6a134-6c2f-47dd-bf47-f8df311ebad7" d="M34.81,7.21q0,7.28-4.54,7.27H27.73V.21h2.6A3.7,3.7,0,0,1,33.67,2,9.77,9.77,0,0,1,34.81,7.21Zm-1,.06a9.56,9.56,0,0,0-.89-4.6,2.85,2.85,0,0,0-2.63-1.59h-1.6V13.6h1.52A2.89,2.89,0,0,0,32.94,12,10.18,10.18,0,0,0,33.81,7.27Z"/><path class="f0c6a134-6c2f-47dd-bf47-f8df311ebad7" d="M48.3,14.48l-3.79-13h-.08c.06,1.37.1,2.24.1,2.6v10.4h-.92V.21H45l3.21,10.91a16.19,16.19,0,0,1,.55,2.46h.08a20.26,20.26,0,0,1,.61-2.44L52.64.21h1.47V14.48h-1V4.16c0-.4,0-1.29.1-2.66h-.08l-3.78,13Z"/><path class="f0c6a134-6c2f-47dd-bf47-f8df311ebad7" d="M66.18,7.32a11.45,11.45,0,0,1-1.05,5.45,3.35,3.35,0,0,1-3.07,1.91A3.31,3.31,0,0,1,59,12.76,11.55,11.55,0,0,1,58,7.3a11.33,11.33,0,0,1,1-5.49A3.35,3.35,0,0,1,62.09,0a3.29,3.29,0,0,1,3,1.9A11.37,11.37,0,0,1,66.18,7.32ZM59,7.32a11.32,11.32,0,0,0,.79,4.81,2.48,2.48,0,0,0,4.65,0,11.34,11.34,0,0,0,.8-4.83,11.46,11.46,0,0,0-.78-4.79,2.5,2.5,0,0,0-4.68,0A11.45,11.45,0,0,0,59,7.32Z"/><path class="f0c6a134-6c2f-47dd-bf47-f8df311ebad7" d="M71,8.24v6.24H70V.21h2a4.11,4.11,0,0,1,3.06,1,4,4,0,0,1,1,2.95,5,5,0,0,1-.53,2.44A3.24,3.24,0,0,1,73.71,8l2.83,6.46H75.47L72.8,8.24Zm0-.88h1.34a2.51,2.51,0,0,0,2-.8A3.51,3.51,0,0,0,75,4.18a3.16,3.16,0,0,0-.72-2.32,3.08,3.08,0,0,0-2.26-.72H71Z"/><path class="f0c6a134-6c2f-47dd-bf47-f8df311ebad7" d="M84.9,14.48H79.73V.21H84.9v.91H80.68V6.54h4v.92h-4v6.1H84.9Z"/></svg>