<svg xmlns="http://www.w3.org/2000/svg" viewBox="0 0 800 520" width="800" height="520" role="img" aria-label="The Blue Zone Secret — The Longest-Lived People"><defs><linearGradient id="bg" x1="0" y1="0" x2="0.4" y2="1"><stop offset="0" stop-color="#bdeccf"/><stop offset="1" stop-color="#5fae8a"/></linearGradient><filter id="soft" x="-50%" y="-50%" width="200%" height="200%"><feGaussianBlur stdDeviation="9"/></filter><radialGradient id="glow" cx="0.5" cy="0.5" r="0.5"><stop offset="0" stop-color="#ffffff" stop-opacity="0.9"/><stop offset="1" stop-color="#ffffff" stop-opacity="0"/></radialGradient></defs><rect width="800" height="520" fill="url(#bg)"/><circle cx="640" cy="110" r="74.8" fill="#ffe08a" opacity="0.25" filter="url(#soft)"/><circle cx="640" cy="110" r="44" fill="#ffe08a"/><path d="M0 360 C200 320 320 350 460 338 C600 326 700 354 800 342 L800 400 L0 400 Z" fill="#7fc6a0"/><path d="M0 384 C200 344 320 374 460 362 C600 350 700 378 800 366 L800 400 L0 400 Z" fill="#4ea87f"/><path d="M0 406 C200 366 320 396 460 384 C600 372 700 400 800 388 L800 400 L0 400 Z" fill="#2e7d5b"/><g transform="translate(360,150)"><path d="M40 18 C40 -8 78 -8 78 18 C78 44 40 64 40 80 C40 64 2 44 2 18 C2 -8 40 -8 40 18 Z" fill="#2e7d5b"/><path d="M-10 60 l20 0 l8 -18 l10 36 l10 -24 l8 6 l24 0" fill="none" stroke="#fff" stroke-width="4" stroke-linecap="round" stroke-linejoin="round"/></g><rect x="60" y="384" width="680" height="106" rx="14" fill="#fbf7ee" opacity="0.97"/><rect x="68" y="392" width="664" height="90" rx="10" fill="none" stroke="#caa86a" stroke-width="1.6"/><text x="400.0" y="430" text-anchor="middle" font-family="Georgia, 'Times New Roman', serif" font-weight="700" font-size="28" fill="#1c2233">The Blue Zone Secret</text><text x="400.0" y="456" text-anchor="middle" font-family="Arial, Helvetica, sans-serif" font-weight="600" letter-spacing="2.5" font-size="11.5" fill="#8a6d3b">THE LONGEST-LIVED PEOPLE</text><rect x="14" y="14" width="772" height="492" rx="18" fill="none" stroke="#2e7d5b" stroke-width="3" opacity="0.85"/><rect x="22" y="22" width="756" height="476" rx="13" fill="none" stroke="#2e7d5b" stroke-width="1.4" opacity="0.5"/></svg>