<svg xmlns="http://www.w3.org/2000/svg" viewBox="0 0 800 520" width="800" height="520" role="img" aria-label="Neon Noir — The Detective Who Knew Too Little"><defs><linearGradient id="bg" x1="0" y1="0" x2="0.4" y2="1"><stop offset="0" stop-color="#10081f"/><stop offset="1" stop-color="#241043"/></linearGradient><filter id="soft" x="-50%" y="-50%" width="200%" height="200%"><feGaussianBlur stdDeviation="9"/></filter><radialGradient id="glow" cx="0.5" cy="0.5" r="0.5"><stop offset="0" stop-color="#ffffff" stop-opacity="0.9"/><stop offset="1" stop-color="#ffffff" stop-opacity="0"/></radialGradient></defs><rect width="800" height="520" fill="url(#bg)"/><g fill="#ffffff"><circle cx="381" cy="117" r="1.8" opacity="0.9"/><circle cx="99" cy="77" r="2.2" opacity="0.5"/><circle cx="424" cy="338" r="1" opacity="0.9"/><circle cx="269" cy="59" r="1" opacity="0.7"/><circle cx="478" cy="75" r="1" opacity="0.5"/><circle cx="614" cy="257" r="1" opacity="0.9"/><circle cx="176" cy="154" r="2.2" opacity="0.5"/><circle cx="640" cy="339" r="1.8" opacity="0.5"/><circle cx="276" cy="63" r="2.2" opacity="0.5"/><circle cx="346" cy="254" r="1" opacity="0.9"/><circle cx="170" cy="332" r="1.4" opacity="0.9"/><circle cx="748" cy="132" r="1" opacity="0.9"/><circle cx="634" cy="136" r="1.4" opacity="0.5"/><circle cx="610" cy="72" r="2.2" opacity="0.5"/></g><rect x="40" y="238" width="79" height="122" rx="4" fill="#2c3d63"/><rect x="48" y="250" width="7" height="10" fill="#ff5d8f" opacity="0.8"/><rect x="66" y="250" width="7" height="10" fill="#ff5d8f" opacity="0.8"/><rect x="84" y="250" width="7" height="10" fill="#ff5d8f" opacity="0.8"/><rect x="102" y="250" width="7" height="10" fill="#ff5d8f" opacity="0.8"/><rect x="66" y="272" width="7" height="10" fill="#ff5d8f" opacity="0.8"/><rect x="84" y="272" width="7" height="10" fill="#ff5d8f" opacity="0.8"/><rect x="102" y="272" width="7" height="10" fill="#ff5d8f" opacity="0.8"/><rect x="48" y="294" width="7" height="10" fill="#ff5d8f" opacity="0.8"/><rect x="84" y="294" width="7" height="10" fill="#ff5d8f" opacity="0.8"/><rect x="48" y="316" width="7" height="10" fill="#ff5d8f" opacity="0.8"/><rect x="66" y="316" width="7" height="10" fill="#ff5d8f" opacity="0.8"/><rect x="66" y="338" width="7" height="10" fill="#ff5d8f" opacity="0.8"/><rect x="84" y="338" width="7" height="10" fill="#ff5d8f" opacity="0.8"/><rect x="129" y="253" width="44" height="107" rx="4" fill="#1f2c49"/><rect x="137" y="287" width="7" height="10" fill="#ff5d8f" opacity="0.8"/><rect x="155" y="309" width="7" height="10" fill="#ff5d8f" opacity="0.8"/><rect x="137" y="331" width="7" height="10" fill="#ff5d8f" opacity="0.8"/><rect x="137" y="353" width="7" height="10" fill="#ff5d8f" opacity="0.8"/><rect x="155" y="353" width="7" height="10" fill="#ff5d8f" opacity="0.8"/><rect x="183" y="244" width="80" height="116" rx="4" fill="#243353"/><rect x="191" y="256" width="7" height="10" fill="#ff5d8f" opacity="0.8"/><rect x="209" y="256" width="7" height="10" fill="#ff5d8f" opacity="0.8"/><rect x="227" y="256" width="7" height="10" fill="#ff5d8f" opacity="0.8"/><rect x="245" y="256" width="7" height="10" fill="#ff5d8f" opacity="0.8"/><rect x="227" y="300" width="7" height="10" fill="#ff5d8f" opacity="0.8"/><rect x="191" y="322" width="7" height="10" fill="#ff5d8f" opacity="0.8"/><rect x="245" y="322" width="7" height="10" fill="#ff5d8f" opacity="0.8"/><rect x="191" y="344" width="7" height="10" fill="#ff5d8f" opacity="0.8"/><rect x="227" y="344" width="7" height="10" fill="#ff5d8f" opacity="0.8"/><rect x="245" y="344" width="7" height="10" fill="#ff5d8f" opacity="0.8"/><rect x="273" y="238" width="43" height="122" rx="4" fill="#1c2740"/><rect x="281" y="250" width="7" height="10" fill="#ff5d8f" opacity="0.8"/><rect x="281" y="272" width="7" height="10" fill="#ff5d8f" opacity="0.8"/><rect x="299" y="272" width="7" height="10" fill="#ff5d8f" opacity="0.8"/><rect x="281" y="294" width="7" height="10" fill="#ff5d8f" opacity="0.8"/><rect x="281" y="316" width="7" height="10" fill="#ff5d8f" opacity="0.8"/><rect x="299" y="316" width="7" height="10" fill="#ff5d8f" opacity="0.8"/><rect x="281" y="338" width="7" height="10" fill="#ff5d8f" opacity="0.8"/><rect x="299" y="338" width="7" height="10" fill="#ff5d8f" opacity="0.8"/><rect x="326" y="255" width="52" height="105" rx="4" fill="#243353"/><rect x="334" y="267" width="7" height="10" fill="#ff5d8f" opacity="0.8"/><rect x="352" y="267" width="7" height="10" fill="#ff5d8f" opacity="0.8"/><rect x="334" y="311" width="7" height="10" fill="#ff5d8f" opacity="0.8"/><rect x="352" y="311" width="7" height="10" fill="#ff5d8f" opacity="0.8"/><rect x="352" y="333" width="7" height="10" fill="#ff5d8f" opacity="0.8"/><rect x="334" y="355" width="7" height="10" fill="#ff5d8f" opacity="0.8"/><rect x="352" y="355" width="7" height="10" fill="#ff5d8f" opacity="0.8"/><rect x="388" y="215" width="42" height="145" rx="4" fill="#1c2740"/><rect x="414" y="227" width="7" height="10" fill="#ff5d8f" opacity="0.8"/><rect x="414" y="271" width="7" height="10" fill="#ff5d8f" opacity="0.8"/><rect x="414" y="293" width="7" height="10" fill="#ff5d8f" opacity="0.8"/><rect x="414" y="315" width="7" height="10" fill="#ff5d8f" opacity="0.8"/><rect x="396" y="337" width="7" height="10" fill="#ff5d8f" opacity="0.8"/><rect x="414" y="337" width="7" height="10" fill="#ff5d8f" opacity="0.8"/><rect x="440" y="209" width="59" height="151" rx="4" fill="#243353"/><rect x="448" y="221" width="7" height="10" fill="#ff5d8f" opacity="0.8"/><rect x="484" y="221" width="7" height="10" fill="#ff5d8f" opacity="0.8"/><rect x="448" y="243" width="7" height="10" fill="#ff5d8f" opacity="0.8"/><rect x="484" y="243" width="7" height="10" fill="#ff5d8f" opacity="0.8"/><rect x="484" y="265" width="7" height="10" fill="#ff5d8f" opacity="0.8"/><rect x="466" y="287" width="7" height="10" fill="#ff5d8f" opacity="0.8"/><rect x="484" y="287" width="7" height="10" fill="#ff5d8f" opacity="0.8"/><rect x="448" y="309" width="7" height="10" fill="#ff5d8f" opacity="0.8"/><rect x="448" y="331" width="7" height="10" fill="#ff5d8f" opacity="0.8"/><rect x="466" y="331" width="7" height="10" fill="#ff5d8f" opacity="0.8"/><rect x="448" y="353" width="7" height="10" fill="#ff5d8f" opacity="0.8"/><rect x="466" y="353" width="7" height="10" fill="#ff5d8f" opacity="0.8"/><rect x="509" y="251" width="63" height="109" rx="4" fill="#1c2740"/><rect x="517" y="263" width="7" height="10" fill="#ff5d8f" opacity="0.8"/><rect x="553" y="263" width="7" height="10" fill="#ff5d8f" opacity="0.8"/><rect x="517" y="285" width="7" height="10" fill="#ff5d8f" opacity="0.8"/><rect x="535" y="285" width="7" height="10" fill="#ff5d8f" opacity="0.8"/><rect x="553" y="285" width="7" height="10" fill="#ff5d8f" opacity="0.8"/><rect x="517" y="307" width="7" height="10" fill="#ff5d8f" opacity="0.8"/><rect x="535" y="307" width="7" height="10" fill="#ff5d8f" opacity="0.8"/><rect x="553" y="307" width="7" height="10" fill="#ff5d8f" opacity="0.8"/><rect x="517" y="329" width="7" height="10" fill="#ff5d8f" opacity="0.8"/><rect x="553" y="329" width="7" height="10" fill="#ff5d8f" opacity="0.8"/><rect x="553" y="351" width="7" height="10" fill="#ff5d8f" opacity="0.8"/><rect x="582" y="190" width="51" height="170" rx="4" fill="#1f2c49"/><rect x="590" y="202" width="7" height="10" fill="#ff5d8f" opacity="0.8"/><rect x="590" y="224" width="7" height="10" fill="#ff5d8f" opacity="0.8"/><rect x="608" y="224" width="7" height="10" fill="#ff5d8f" opacity="0.8"/><rect x="590" y="246" width="7" height="10" fill="#ff5d8f" opacity="0.8"/><rect x="608" y="246" width="7" height="10" fill="#ff5d8f" opacity="0.8"/><rect x="608" y="268" width="7" height="10" fill="#ff5d8f" opacity="0.8"/><rect x="608" y="290" width="7" height="10" fill="#ff5d8f" opacity="0.8"/><rect x="590" y="334" width="7" height="10" fill="#ff5d8f" opacity="0.8"/><rect x="608" y="334" width="7" height="10" fill="#ff5d8f" opacity="0.8"/><rect x="643" y="237" width="71" height="123" rx="4" fill="#2c3d63"/><rect x="651" y="249" width="7" height="10" fill="#ff5d8f" opacity="0.8"/><rect x="705" y="249" width="7" height="10" fill="#ff5d8f" opacity="0.8"/><rect x="651" y="271" width="7" height="10" fill="#ff5d8f" opacity="0.8"/><rect x="669" y="271" width="7" height="10" fill="#ff5d8f" opacity="0.8"/><rect x="669" y="293" width="7" height="10" fill="#ff5d8f" opacity="0.8"/><rect x="687" y="293" width="7" height="10" fill="#ff5d8f" opacity="0.8"/><rect x="687" y="315" width="7" height="10" fill="#ff5d8f" opacity="0.8"/><rect x="705" y="315" width="7" height="10" fill="#ff5d8f" opacity="0.8"/><rect x="651" y="337" width="7" height="10" fill="#ff5d8f" opacity="0.8"/><rect x="687" y="337" width="7" height="10" fill="#ff5d8f" opacity="0.8"/><rect x="705" y="337" width="7" height="10" fill="#ff5d8f" opacity="0.8"/><rect x="724" y="228" width="63" height="132" rx="4" fill="#243353"/><rect x="732" y="240" width="7" height="10" fill="#ff5d8f" opacity="0.8"/><rect x="768" y="240" width="7" height="10" fill="#ff5d8f" opacity="0.8"/><rect x="732" y="262" width="7" height="10" fill="#ff5d8f" opacity="0.8"/><rect x="750" y="262" width="7" height="10" fill="#ff5d8f" opacity="0.8"/><rect x="768" y="262" width="7" height="10" fill="#ff5d8f" opacity="0.8"/><rect x="732" y="284" width="7" height="10" fill="#ff5d8f" opacity="0.8"/><rect x="750" y="284" width="7" height="10" fill="#ff5d8f" opacity="0.8"/><rect x="732" y="306" width="7" height="10" fill="#ff5d8f" opacity="0.8"/><rect x="750" y="306" width="7" height="10" fill="#ff5d8f" opacity="0.8"/><rect x="768" y="306" width="7" height="10" fill="#ff5d8f" opacity="0.8"/><rect x="732" y="328" width="7" height="10" fill="#ff5d8f" opacity="0.8"/><rect x="750" y="328" width="7" height="10" fill="#ff5d8f" opacity="0.8"/><rect x="768" y="328" width="7" height="10" fill="#ff5d8f" opacity="0.8"/><rect x="732" y="350" width="7" height="10" fill="#ff5d8f" opacity="0.8"/><rect x="750" y="350" width="7" height="10" fill="#ff5d8f" opacity="0.8"/><circle cx="120" cy="90" r="30" fill="#ff5d8f" opacity="0.9"/><circle cx="120" cy="90" r="46" fill="#ff5d8f" opacity="0.2" filter="url(#soft)"/><rect x="60" y="384" width="680" height="106" rx="14" fill="#fbf7ee" opacity="0.97"/><rect x="68" y="392" width="664" height="90" rx="10" fill="none" stroke="#caa86a" stroke-width="1.6"/><text x="400.0" y="430" text-anchor="middle" font-family="Georgia, 'Times New Roman', serif" font-weight="700" font-size="34" fill="#1c2233">Neon Noir</text><text x="400.0" y="456" text-anchor="middle" font-family="Arial, Helvetica, sans-serif" font-weight="600" letter-spacing="2.5" font-size="11.5" fill="#8a6d3b">THE DETECTIVE WHO KNEW TOO LITTLE</text><rect x="14" y="14" width="772" height="492" rx="18" fill="none" stroke="#ff5d8f" stroke-width="3" opacity="0.85"/><rect x="22" y="22" width="756" height="476" rx="13" fill="none" stroke="#ff5d8f" stroke-width="1.4" opacity="0.5"/></svg>