<svg xmlns="http://www.w3.org/2000/svg" viewBox="0 0 800 520" width="800" height="520" role="img" aria-label="The Last Train Home — A Midnight Crossing"><defs><linearGradient id="bg" x1="0" y1="0" x2="0.4" y2="1"><stop offset="0" stop-color="#0d1020"/><stop offset="1" stop-color="#262b45"/></linearGradient><filter id="soft" x="-50%" y="-50%" width="200%" height="200%"><feGaussianBlur stdDeviation="9"/></filter><radialGradient id="glow" cx="0.5" cy="0.5" r="0.5"><stop offset="0" stop-color="#ffffff" stop-opacity="0.9"/><stop offset="1" stop-color="#ffffff" stop-opacity="0"/></radialGradient></defs><rect width="800" height="520" fill="url(#bg)"/><g fill="#ffffff"><circle cx="381" cy="117" r="1.8" opacity="0.9"/><circle cx="99" cy="77" r="2.2" opacity="0.5"/><circle cx="424" cy="338" r="1" opacity="0.9"/><circle cx="269" cy="59" r="1" opacity="0.7"/><circle cx="478" cy="75" r="1" opacity="0.5"/><circle cx="614" cy="257" r="1" opacity="0.9"/><circle cx="176" cy="154" r="2.2" opacity="0.5"/><circle cx="640" cy="339" r="1.8" opacity="0.5"/><circle cx="276" cy="63" r="2.2" opacity="0.5"/><circle cx="346" cy="254" r="1" opacity="0.9"/><circle cx="170" cy="332" r="1.4" opacity="0.9"/><circle cx="748" cy="132" r="1" opacity="0.9"/><circle cx="634" cy="136" r="1.4" opacity="0.5"/><circle cx="610" cy="72" r="2.2" opacity="0.5"/><circle cx="683" cy="145" r="1.8" opacity="0.9"/><circle cx="594" cy="258" r="1.4" opacity="0.7"/><circle cx="649" cy="272" r="1.4" opacity="0.7"/><circle cx="304" cy="132" r="1" opacity="0.5"/></g><circle cx="660" cy="90" r="40" fill="#fff7df"/><circle cx="648.0" cy="80.0" r="7.199999999999999" fill="#000" opacity="0.05"/><rect x="40" y="300" width="720" height="10" fill="#2a2f45"/><g transform="translate(250,180)"><rect x="0" y="60" width="300" height="90" rx="14" fill="#7c8ce0"/><rect x="20" y="80" width="50" height="40" rx="6" fill="#fff7d6" opacity="0.9"/><rect x="90" y="80" width="50" height="40" rx="6" fill="#fff7d6" opacity="0.9"/><rect x="160" y="80" width="50" height="40" rx="6" fill="#fff7d6" opacity="0.9"/><rect x="-60" y="40" width="80" height="110" rx="16" fill="#3a4366" /><circle cx="-20" cy="110" r="40" fill="url(#glow)" opacity="0.5"/><circle cx="40" cy="160" r="14" fill="#1a1d2b"/><circle cx="120" cy="160" r="14" fill="#1a1d2b"/><circle cx="430" cy="160" r="14" fill="#1a1d2b"/></g><rect x="60" y="384" width="680" height="106" rx="14" fill="#fbf7ee" opacity="0.97"/><rect x="68" y="392" width="664" height="90" rx="10" fill="none" stroke="#caa86a" stroke-width="1.6"/><text x="400.0" y="430" text-anchor="middle" font-family="Georgia, 'Times New Roman', serif" font-weight="700" font-size="28" fill="#1c2233">The Last Train Home</text><text x="400.0" y="456" text-anchor="middle" font-family="Arial, Helvetica, sans-serif" font-weight="600" letter-spacing="2.5" font-size="11.5" fill="#8a6d3b">A MIDNIGHT CROSSING</text><rect x="14" y="14" width="772" height="492" rx="18" fill="none" stroke="#7c8ce0" stroke-width="3" opacity="0.85"/><rect x="22" y="22" width="756" height="476" rx="13" fill="none" stroke="#7c8ce0" stroke-width="1.4" opacity="0.5"/></svg>