<svg xmlns="http://www.w3.org/2000/svg" viewBox="0 0 800 520" width="800" height="520" role="img" aria-label="The Clever Monkey and the Two Cats"><defs><linearGradient id="bg" x1="0" y1="0" x2="0.4" y2="1"><stop offset="0" stop-color="#bfe3a0"/><stop offset="1" stop-color="#7fb85e"/></linearGradient><filter id="soft" x="-50%" y="-50%" width="200%" height="200%"><feGaussianBlur stdDeviation="9"/></filter><radialGradient id="glow" cx="0.5" cy="0.5" r="0.5"><stop offset="0" stop-color="#ffffff" stop-opacity="0.9"/><stop offset="1" stop-color="#ffffff" stop-opacity="0"/></radialGradient></defs><rect width="800" height="520" fill="url(#bg)"/><circle cx="650" cy="100" r="68.0" fill="#ffe08a" opacity="0.25" filter="url(#soft)"/><circle cx="650" cy="100" r="40" fill="#ffe08a"/><path d="M0 360 C200 320 320 350 460 338 C600 326 700 354 800 342 L800 400 L0 400 Z" fill="#9ccb6a"/><path d="M0 384 C200 344 320 374 460 362 C600 350 700 378 800 366 L800 400 L0 400 Z" fill="#6fa547"/><g transform="translate(400,210)"><circle r="42" fill="#a9743b"/><circle cx="-40" cy="-8" r="16" fill="#a9743b"/><circle cx="40" cy="-8" r="16" fill="#a9743b"/><circle cx="0" cy="6" r="30" fill="#e9cba0"/><circle cx="-13" cy="-6" r="6" fill="#222"/><circle cx="13" cy="-6" r="6" fill="#222"/><path d="M-10 16 q10 8 20 0" stroke="#222" stroke-width="3" fill="none" stroke-linecap="round"/></g><rect x="60" y="384" width="680" height="106" rx="14" fill="#fbf7ee" opacity="0.97"/><rect x="68" y="392" width="664" height="90" rx="10" fill="none" stroke="#caa86a" stroke-width="1.6"/><text x="400.0" y="422" text-anchor="middle" font-family="Georgia, 'Times New Roman', serif" font-weight="700" font-size="25" fill="#1c2233">The Clever Monkey</text><text x="400.0" y="452" text-anchor="middle" font-family="Georgia, 'Times New Roman', serif" font-weight="700" font-size="25" fill="#1c2233">and the Two Cats</text><text x="400.0" y="478" text-anchor="middle" font-family="Arial, Helvetica, sans-serif" font-weight="600" letter-spacing="2.5" font-size="11.5" fill="#8a6d3b">VILFINTV KIDS</text><rect x="14" y="14" width="772" height="492" rx="18" fill="none" stroke="#a9743b" stroke-width="3" opacity="0.85"/><rect x="22" y="22" width="756" height="476" rx="13" fill="none" stroke="#a9743b" stroke-width="1.4" opacity="0.5"/></svg>