<svg xmlns="http://www.w3.org/2000/svg" viewBox="0 0 800 520" width="800" height="520" role="img" aria-label="The Lazy Donkey&#x27;s Wet Trick"><defs><linearGradient id="bg" x1="0" y1="0" x2="0.4" y2="1"><stop offset="0" stop-color="#ffe7b0"/><stop offset="1" stop-color="#e0a85a"/></linearGradient><filter id="soft" x="-50%" y="-50%" width="200%" height="200%"><feGaussianBlur stdDeviation="9"/></filter><radialGradient id="glow" cx="0.5" cy="0.5" r="0.5"><stop offset="0" stop-color="#ffffff" stop-opacity="0.9"/><stop offset="1" stop-color="#ffffff" stop-opacity="0"/></radialGradient></defs><rect width="800" height="520" fill="url(#bg)"/><circle cx="160" cy="110" r="64.6" fill="#ffd9a0" opacity="0.25" filter="url(#soft)"/><circle cx="160" cy="110" r="38" fill="#ffd9a0"/><path d="M0 360 C200 320 320 350 460 338 C600 326 700 354 800 342 L800 400 L0 400 Z" fill="#caa15a"/><path d="M0 384 C200 344 320 374 460 362 C600 350 700 378 800 366 L800 400 L0 400 Z" fill="#9b7838"/><g transform="translate(400,210)"><ellipse cx="0" cy="20" rx="60" ry="36" fill="#9c8a6a"/><circle cx="60" cy="-6" r="26" fill="#9c8a6a"/><path d="M48 -28 l-6 -28 l16 18 z" fill="#9c8a6a"/><path d="M74 -28 l6 -28 l-16 18 z" fill="#9c8a6a"/><circle cx="66" cy="-8" r="4" fill="#222"/><line x1="-40" y1="44" x2="-46" y2="80" stroke="#9c8a6a" stroke-width="10" stroke-linecap="round"/><line x1="40" y1="44" x2="46" y2="80" stroke="#9c8a6a" stroke-width="10" stroke-linecap="round"/></g><path d="M120 330 q40 -10 80 0" stroke="#6fa6c8" stroke-width="6" fill="none" opacity="0.6"/><rect x="60" y="384" width="680" height="106" rx="14" fill="#fbf7ee" opacity="0.97"/><rect x="68" y="392" width="664" height="90" rx="10" fill="none" stroke="#caa86a" stroke-width="1.6"/><text x="400.0" y="422" text-anchor="middle" font-family="Georgia, 'Times New Roman', serif" font-weight="700" font-size="25" fill="#1c2233">The Lazy Donkey&#x27;s</text><text x="400.0" y="452" text-anchor="middle" font-family="Georgia, 'Times New Roman', serif" font-weight="700" font-size="25" fill="#1c2233">Wet Trick</text><text x="400.0" y="478" text-anchor="middle" font-family="Arial, Helvetica, sans-serif" font-weight="600" letter-spacing="2.5" font-size="11.5" fill="#8a6d3b">VILFINTV KIDS</text><rect x="14" y="14" width="772" height="492" rx="18" fill="none" stroke="#9c8a6a" stroke-width="3" opacity="0.85"/><rect x="22" y="22" width="756" height="476" rx="13" fill="none" stroke="#9c8a6a" stroke-width="1.4" opacity="0.5"/></svg>