<svg xmlns="http://www.w3.org/2000/svg" viewBox="0 0 800 520" width="800" height="520" role="img" aria-label="The School of Trust — Finland’s Education Success"><defs><linearGradient id="bg" x1="0" y1="0" x2="0.4" y2="1"><stop offset="0" stop-color="#16294a"/><stop offset="1" stop-color="#274a7a"/></linearGradient><filter id="soft" x="-50%" y="-50%" width="200%" height="200%"><feGaussianBlur stdDeviation="9"/></filter><radialGradient id="glow" cx="0.5" cy="0.5" r="0.5"><stop offset="0" stop-color="#ffffff" stop-opacity="0.9"/><stop offset="1" stop-color="#ffffff" stop-opacity="0"/></radialGradient></defs><rect width="800" height="520" fill="url(#bg)"/><g fill="#ffffff"></g><g transform="translate(400,180)"><path d="M-90 30 L0 -20 L90 30 L0 80 Z" fill="#ffd06b"/><rect x="-30" y="40" width="60" height="40" fill="#ffd06b"/><rect x="-6" y="30" width="12" height="60" fill="#caa86a"/><circle cx="0" cy="90" r="8" fill="#caa86a"/></g><g stroke="#ffd06b" stroke-width="2" opacity="0.4" fill="none"><circle cx="160" cy="120" r="20"/><circle cx="640" cy="120" r="20"/></g><rect x="60" y="384" width="680" height="106" rx="14" fill="#fbf7ee" opacity="0.97"/><rect x="68" y="392" width="664" height="90" rx="10" fill="none" stroke="#caa86a" stroke-width="1.6"/><text x="400.0" y="430" text-anchor="middle" font-family="Georgia, 'Times New Roman', serif" font-weight="700" font-size="28" fill="#1c2233">The School of Trust</text><text x="400.0" y="456" text-anchor="middle" font-family="Arial, Helvetica, sans-serif" font-weight="600" letter-spacing="2.5" font-size="11.5" fill="#8a6d3b">FINLAND’S EDUCATION SUCCESS</text><rect x="14" y="14" width="772" height="492" rx="18" fill="none" stroke="#ffd06b" stroke-width="3" opacity="0.85"/><rect x="22" y="22" width="756" height="476" rx="13" fill="none" stroke="#ffd06b" stroke-width="1.4" opacity="0.5"/></svg>