<svg xmlns="http://www.w3.org/2000/svg" viewBox="0 0 800 520" width="800" height="520" role="img" aria-label="the-hare-and-the-steady-tortoise illustration 3"><defs><filter id="soft" x="-50%" y="-50%" width="200%" height="200%"><feGaussianBlur stdDeviation="7"/></filter><radialGradient id="glow" cx="0.5" cy="0.5" r="0.5"><stop offset="0" stop-color="#fff3c4" stop-opacity="0.95"/><stop offset="1" stop-color="#ffd75e" stop-opacity="0"/></radialGradient></defs><defs><linearGradient id="bg" x1="0" y1="0" x2="0" y2="1"><stop offset="0" stop-color="#cdeaa6"/><stop offset="1" stop-color="#86bd5e"/></linearGradient></defs><rect width="800" height="520" fill="url(#bg)"/><circle cx="660" cy="100" r="72.0" fill="#ffe08a" opacity="0.25" filter="url(#soft)"/><circle cx="660" cy="100" r="40" fill="#ffe08a"/><path d="M0 360 C200 322 340 352 470 338 C600 326 700 354 800 342 L800 520 L0 520 Z" fill="#9ccb6a"/><path d="M0 384 C200 346 340 376 470 362 C600 350 700 378 800 366 L800 520 L0 520 Z" fill="#6fa547"/><rect x="500" y="220" width="10" height="180" fill="#c0392b"/><g><rect x="510" y="220" width="20" height="20" fill="#222"/><rect x="510" y="240" width="20" height="20" fill="#fff"/><rect x="510" y="260" width="20" height="20" fill="#222"/><rect x="510" y="280" width="20" height="20" fill="#fff"/></g><g transform="translate(470,400) scale(1.7)"><path d="M-30 8 a30 22 0 0 1 60 0 z" fill="#3e7d4f"/><ellipse cx="-34" cy="12" rx="11" ry="9" fill="#6fae5e"/><circle cx="-40" cy="10" r="2.5" fill="#222"/><rect x="-22" y="26" width="10" height="10" rx="3" fill="#6fae5e"/><rect x="12" y="26" width="10" height="10" rx="3" fill="#6fae5e"/></g><g transform="translate(470,300)"><path d="M-12 0 h24 l-3 16 h-18 z" fill="#ffd75e"/><ellipse cx="0" cy="-2" rx="14" ry="10" fill="#ffd75e"/><rect x="-8" y="16" width="16" height="6" fill="#caa86a"/></g><g transform="translate(180,380) scale(1.1)"><ellipse cx="0" cy="10" rx="30" ry="22" fill="#caa07a"/><circle cx="22" cy="-8" r="15" fill="#caa07a"/><path d="M16 -20 l-4 -30 l12 22 z" fill="#caa07a"/><path d="M28 -20 l8 -28 l-10 20 z" fill="#caa07a"/><circle cx="26" cy="-10" r="3" fill="#222"/></g></svg>